G04 Layer_Physical_Order=2*
G04 Layer_Color=16711680*
%FSLAX44Y44*%
%MOMM*%
G71*
G01*
G75*
%ADD10C,0.6000*%
%ADD11C,0.5000*%
%ADD14C,1.8000*%
%ADD15R,1.8000X1.8000*%
%ADD16C,1.5240*%
%ADD17R,1.3000X1.3000*%
%ADD18C,1.3000*%
%ADD19C,1.3500*%
%ADD20R,1.3500X1.3500*%
%ADD21C,1.4000*%
%ADD22R,1.4000X1.4000*%
%ADD23C,1.1000*%
%ADD24R,1.1000X1.1000*%
%ADD25R,1.1000X1.1000*%
%ADD26R,1.6000X1.6000*%
%ADD27C,1.6000*%
%ADD28R,1.3000X1.3000*%
D10*
X926750Y848000D02*
X1108750D01*
X883500Y891250D02*
X926750Y848000D01*
X818900Y840000D02*
X1119500D01*
X767700Y891200D02*
X818900Y840000D01*
X699094Y1235906D02*
X756750Y1178250D01*
X699094Y1235906D02*
Y1268406D01*
X891750Y1284000D02*
X900250Y1275500D01*
X903750Y1163375D02*
Y1175000D01*
X791350Y1287400D02*
X903750Y1175000D01*
X788400Y1287400D02*
X791350D01*
X903750Y1163375D02*
X904500Y1162750D01*
X915750Y1151500D01*
X939500D01*
X839200Y1287400D02*
X869000Y1257600D01*
Y1253600D02*
Y1257600D01*
X833000Y1209000D02*
X865000Y1177000D01*
X750750Y1209000D02*
X833000D01*
X715500Y1244250D02*
X750750Y1209000D01*
X806000Y1301000D02*
X813800Y1293200D01*
X658250Y1301000D02*
X806000D01*
X696750Y1287000D02*
X715500Y1268250D01*
Y1244250D02*
Y1268250D01*
X915400Y1260700D02*
X927750Y1248350D01*
X915400Y1260700D02*
Y1287400D01*
X993500Y1229750D02*
X1002250Y1238500D01*
Y1251100D01*
X939500Y1151500D02*
X1030250Y1060750D01*
Y946500D02*
Y1060750D01*
X1030500Y917250D02*
X1053050Y894700D01*
X1030500Y917250D02*
Y946250D01*
X1030250Y946500D02*
X1030500Y946250D01*
X1016250Y911250D02*
Y1040000D01*
X992000Y887000D02*
X1016250Y911250D01*
X994625Y1061625D02*
X1016250Y1040000D01*
X994500Y1061500D02*
X994625Y1061625D01*
X964500Y1061500D02*
X994500D01*
X947000Y955250D02*
X998200D01*
X882750Y1019500D02*
X947000Y955250D01*
X882750Y1019500D02*
Y1070250D01*
X987350Y1195000D02*
X1053250D01*
X864500Y891250D02*
X883500D01*
X742200Y865800D02*
X767700D01*
X647500Y1143500D02*
X760250Y1030750D01*
X647500Y1143500D02*
Y1253000D01*
X710000Y956900D02*
X731800D01*
X840000Y942000D02*
X862000D01*
X662500Y1287000D02*
X696750D01*
X632250Y1256750D02*
X662500Y1287000D01*
X692250Y1275250D02*
X699094Y1268406D01*
X669750Y1275250D02*
X692250D01*
X647500Y1253000D02*
X669750Y1275250D01*
X768350Y1124900D02*
Y1162050D01*
X891000Y1135000D02*
X964500Y1061500D01*
X962750Y1170400D02*
X987350Y1195000D01*
X800750Y1013801D02*
Y1015350D01*
X813800Y1287400D02*
Y1293200D01*
X1002250Y1251100D02*
Y1253250D01*
X755650Y1280050D02*
X763000Y1287400D01*
X755650Y1261250D02*
Y1280050D01*
X731800Y956900D02*
X767700Y992800D01*
X776250Y1005750D02*
X840000Y942000D01*
X860650Y1043600D02*
X862000D01*
X768350Y1124900D02*
X775462Y1117787D01*
X786462D01*
X844550Y1162050D02*
X858950D01*
X863600Y1157400D01*
Y1136000D02*
Y1157400D01*
X798550Y1056250D02*
X862000Y992800D01*
X786462Y1117787D02*
X860650Y1043600D01*
X813800Y1119450D02*
Y1135000D01*
Y1119450D02*
X851250Y1082000D01*
X871000D02*
X882750Y1070250D01*
X788400Y1135000D02*
X804150Y1150750D01*
X817750D01*
X888500Y1120250D02*
X969050Y1039700D01*
X833250Y1120250D02*
X888500D01*
X826500Y1127000D02*
X833250Y1120250D01*
X817750Y1150750D02*
X826500Y1142000D01*
X863600Y1136000D02*
X864600Y1135000D01*
X617750Y1125350D02*
X710000Y1033100D01*
X617750Y1125350D02*
Y1260500D01*
X658250Y1301000D01*
X988950Y887000D02*
X991250D01*
X992000D01*
X1053050Y894700D02*
X1064750D01*
X1108750Y848000D02*
X1113000Y852250D01*
Y1135250D01*
X1053250Y1195000D02*
X1113000Y1135250D01*
X1119500Y840000D02*
X1125250Y845750D01*
Y1145500D01*
X1054250Y1216500D02*
X1125250Y1145500D01*
X1045000Y968250D02*
X1073500Y939750D01*
X1045000Y968250D02*
Y993794D01*
X1044750Y994044D02*
X1045000Y993794D01*
X1044750Y994044D02*
Y1003156D01*
X1045000Y1003406D01*
Y1020400D01*
X679450Y1134800D02*
X758000Y1056250D01*
X611250Y1005250D02*
X634000D01*
X709250Y930000D01*
X679450Y1134800D02*
Y1258750D01*
X969050Y1039700D02*
X981250D01*
X962000Y885000D02*
X979750Y867250D01*
X1061000D01*
X756750Y1178250D02*
X806000D01*
X839200Y1145050D01*
Y1135000D02*
Y1145050D01*
X785350Y1030750D02*
X800750Y1015350D01*
X927750Y1172150D02*
X933150D01*
X977500Y1216500D01*
X1054250D01*
X895750Y1209250D02*
X948000D01*
X968500Y1229750D01*
X993500D01*
X939650Y1223500D02*
X962750Y1246600D01*
X900250Y1230750D02*
Y1275500D01*
Y1230750D02*
X907500Y1223500D01*
X939650D01*
X885250Y1219750D02*
X895750Y1209250D01*
X885250Y1219750D02*
Y1266750D01*
X864600Y1287400D02*
X885250Y1266750D01*
X632250Y1133750D02*
Y1256750D01*
Y1133750D02*
X760250Y1005750D01*
X865000Y1177000D02*
X869000D01*
X1073500Y917750D02*
Y939750D01*
Y917750D02*
X1096500Y894750D01*
Y864000D02*
Y894750D01*
X657250Y950750D02*
X742200Y865800D01*
D11*
X760250Y1030750D02*
X785350D01*
X758000Y1056250D02*
X798550D01*
X851250Y1082000D02*
X871000D01*
X826500Y1127000D02*
Y1142000D01*
X709250Y929500D02*
X939750D01*
X760250Y1005750D02*
X776250D01*
D14*
X1079500Y825500D02*
D03*
X1054100D02*
D03*
X1028700D02*
D03*
X1003300D02*
D03*
X977900D02*
D03*
X952500D02*
D03*
X927100D02*
D03*
X901700D02*
D03*
X876300D02*
D03*
X850900D02*
D03*
X825500D02*
D03*
X800100D02*
D03*
X774700D02*
D03*
X749300D02*
D03*
X723900D02*
D03*
X698500D02*
D03*
X673100D02*
D03*
X647700D02*
D03*
X622300D02*
D03*
X596900D02*
D03*
X1079500Y800100D02*
D03*
X1054100D02*
D03*
X1028700D02*
D03*
X1003300D02*
D03*
X977900D02*
D03*
X952500D02*
D03*
X927100D02*
D03*
X901700D02*
D03*
X876300D02*
D03*
X850900D02*
D03*
X825500D02*
D03*
X800100D02*
D03*
X774700D02*
D03*
X749300D02*
D03*
X723900D02*
D03*
X698500D02*
D03*
X673100D02*
D03*
X647700D02*
D03*
X622300D02*
D03*
D15*
X596900D02*
D03*
D16*
X1128200Y812800D02*
D03*
X548200D02*
D03*
D17*
X767700Y1094400D02*
D03*
D18*
Y1069000D02*
D03*
Y1043600D02*
D03*
Y1018200D02*
D03*
Y992800D02*
D03*
Y967400D02*
D03*
Y942000D02*
D03*
Y916600D02*
D03*
Y891200D02*
D03*
Y865800D02*
D03*
X862000Y1094400D02*
D03*
Y1069000D02*
D03*
Y1043600D02*
D03*
Y1018200D02*
D03*
Y992800D02*
D03*
Y967400D02*
D03*
Y942000D02*
D03*
Y916600D02*
D03*
Y891200D02*
D03*
Y865800D02*
D03*
X611250Y1056250D02*
D03*
Y1039250D02*
D03*
Y1022250D02*
D03*
Y1005250D02*
D03*
X657600Y950750D02*
D03*
X581400D02*
D03*
X985100Y1079000D02*
D03*
X908900D02*
D03*
D19*
X943000Y980750D02*
D03*
D20*
X943000Y930750D02*
D03*
D21*
X1069500Y1019900D02*
D03*
Y1096100D02*
D03*
X1055750Y922400D02*
D03*
Y998600D02*
D03*
X1045000Y1020400D02*
D03*
Y1096600D02*
D03*
X654050Y908050D02*
D03*
X577850D02*
D03*
X710000Y1033100D02*
D03*
Y956900D02*
D03*
X556900Y877000D02*
D03*
X633100D02*
D03*
X844550Y1162050D02*
D03*
X768350D02*
D03*
X962750Y1246600D02*
D03*
Y1170400D02*
D03*
X800000Y1018600D02*
D03*
Y942400D02*
D03*
X927750Y1248350D02*
D03*
Y1172150D02*
D03*
X755600Y1258750D02*
D03*
X679400D02*
D03*
X869000Y1253600D02*
D03*
Y1177400D02*
D03*
X1002250Y1251100D02*
D03*
Y1174900D02*
D03*
X788400Y1287400D02*
D03*
X813800D02*
D03*
X890000D02*
D03*
X864600D02*
D03*
X839200D02*
D03*
Y1135000D02*
D03*
X864600D02*
D03*
X890000D02*
D03*
X813800D02*
D03*
X788400D02*
D03*
X763000Y1287400D02*
D03*
D22*
X915400D02*
D03*
D23*
X1064750Y867000D02*
D03*
Y882000D02*
D03*
X981250Y1027000D02*
D03*
Y1012000D02*
D03*
X1003000Y982750D02*
D03*
Y967750D02*
D03*
X976250Y887000D02*
D03*
X961250D02*
D03*
D24*
X1064750Y897000D02*
D03*
X981250Y1042000D02*
D03*
X1003000Y952750D02*
D03*
D25*
X991250Y887000D02*
D03*
D26*
X1095750Y949500D02*
D03*
X1095750Y1037500D02*
D03*
X1096250Y862500D02*
D03*
D27*
X1095750Y1014500D02*
D03*
X1140750D02*
D03*
Y949500D02*
D03*
X1140750Y1037500D02*
D03*
Y1102500D02*
D03*
X1095750D02*
D03*
X1096250Y927500D02*
D03*
X1141250D02*
D03*
Y862500D02*
D03*
D28*
X611250Y1073250D02*
D03*
M02*
