G04 Layer_Color=32896*
%FSLAX44Y44*%
%MOMM*%
%TF.FileFunction,Legend,Bot*%
%TF.Part,Single*%
G01*
G75*
%TA.AperFunction,NonConductor*%
%ADD10C,0.4000*%
%ADD11C,0.2000*%
%ADD12C,0.2540*%
D10*
X566900Y840100D02*
X1108900D01*
Y784100D02*
Y840100D01*
X566900Y784100D02*
X1108900D01*
X566900D02*
Y819100D01*
Y806450D02*
Y840100D01*
D11*
X778764Y1162050D02*
X781050D01*
X831850D02*
X834136D01*
X781050Y1154430D02*
Y1162050D01*
Y1154430D02*
X831850D01*
Y1169670D01*
X781050D02*
X831850D01*
X781050Y1162050D02*
Y1169670D01*
X962750Y1180814D02*
Y1183100D01*
Y1233900D02*
Y1236186D01*
Y1183100D02*
X970370D01*
Y1233900D01*
X955130D02*
X970370D01*
X955130Y1183100D02*
Y1233900D01*
Y1183100D02*
X962750D01*
X800000Y952814D02*
Y955100D01*
Y1005900D02*
Y1008186D01*
Y955100D02*
X807620D01*
Y1005900D01*
X792380D02*
X807620D01*
X792380Y955100D02*
Y1005900D01*
Y955100D02*
X800000D01*
X927750Y1182564D02*
Y1184850D01*
Y1235650D02*
Y1237936D01*
Y1184850D02*
X935370D01*
Y1235650D01*
X920130D02*
X935370D01*
X920130Y1184850D02*
Y1235650D01*
Y1184850D02*
X927750D01*
X689814Y1258750D02*
X692100D01*
X742900D02*
X745186D01*
X692100Y1251130D02*
Y1258750D01*
Y1251130D02*
X742900D01*
Y1266370D01*
X692100D02*
X742900D01*
X692100Y1258750D02*
Y1266370D01*
X869000Y1187814D02*
Y1190100D01*
Y1240900D02*
Y1243186D01*
Y1190100D02*
X876620D01*
Y1240900D01*
X861380D02*
X876620D01*
X861380Y1190100D02*
Y1240900D01*
Y1190100D02*
X869000D01*
X1002250Y1185314D02*
Y1187600D01*
Y1238400D02*
Y1240686D01*
Y1187600D02*
X1009870D01*
Y1238400D01*
X994630D02*
X1009870D01*
X994630Y1187600D02*
Y1238400D01*
Y1187600D02*
X1002250D01*
D12*
X837790Y1203290D02*
X853025D01*
Y1210908D01*
X850486Y1213447D01*
X845407D01*
X842868Y1210908D01*
Y1203290D01*
Y1208368D02*
X837790Y1213447D01*
Y1218525D02*
Y1223603D01*
Y1221064D01*
X853025D01*
X850486Y1218525D01*
X837790Y1231221D02*
Y1236299D01*
Y1233760D01*
X853025D01*
X850486Y1231221D01*
X822250Y1177000D02*
Y1192235D01*
X814632D01*
X812093Y1189696D01*
Y1184617D01*
X814632Y1182078D01*
X822250D01*
X817172D02*
X812093Y1177000D01*
X807015D02*
X801937D01*
X804476D01*
Y1192235D01*
X807015Y1189696D01*
X794319D02*
X791780Y1192235D01*
X786702D01*
X784162Y1189696D01*
Y1187157D01*
X786702Y1184617D01*
X789241D01*
X786702D01*
X784162Y1182078D01*
Y1179539D01*
X786702Y1177000D01*
X791780D01*
X794319Y1179539D01*
X736000Y1227000D02*
Y1242235D01*
X728382D01*
X725843Y1239696D01*
Y1234617D01*
X728382Y1232078D01*
X736000D01*
X730922D02*
X725843Y1227000D01*
X720765D02*
X715687D01*
X718226D01*
Y1242235D01*
X720765Y1239696D01*
X697912Y1227000D02*
X708069D01*
X697912Y1237157D01*
Y1239696D01*
X700452Y1242235D01*
X705530D01*
X708069Y1239696D01*
X954250Y1120000D02*
X969485D01*
Y1127617D01*
X966946Y1130157D01*
X961868D01*
X959328Y1127617D01*
Y1120000D01*
Y1125078D02*
X954250Y1130157D01*
Y1135235D02*
Y1140313D01*
Y1137774D01*
X969485D01*
X966946Y1135235D01*
Y1147931D02*
X969485Y1150470D01*
Y1155548D01*
X966946Y1158088D01*
X956789D01*
X954250Y1155548D01*
Y1150470D01*
X956789Y1147931D01*
X966946D01*
X920500Y1132750D02*
X935735D01*
Y1140368D01*
X933196Y1142907D01*
X928118D01*
X925578Y1140368D01*
Y1132750D01*
Y1137828D02*
X920500Y1142907D01*
X923039Y1147985D02*
X920500Y1150524D01*
Y1155603D01*
X923039Y1158142D01*
X933196D01*
X935735Y1155603D01*
Y1150524D01*
X933196Y1147985D01*
X930657D01*
X928118Y1150524D01*
Y1158142D01*
X793650Y904300D02*
X808885D01*
Y911917D01*
X806346Y914457D01*
X801267D01*
X798728Y911917D01*
Y904300D01*
Y909378D02*
X793650Y914457D01*
X806346Y919535D02*
X808885Y922074D01*
Y927153D01*
X806346Y929692D01*
X803807D01*
X801267Y927153D01*
X798728Y929692D01*
X796189D01*
X793650Y927153D01*
Y922074D01*
X796189Y919535D01*
X798728D01*
X801267Y922074D01*
X803807Y919535D01*
X806346D01*
X801267Y922074D02*
Y927153D01*
X995000Y1137750D02*
X1010235D01*
Y1145368D01*
X1007696Y1147907D01*
X1002617D01*
X1000078Y1145368D01*
Y1137750D01*
Y1142828D02*
X995000Y1147907D01*
X1010235Y1163142D02*
X1007696Y1158063D01*
X1002617Y1152985D01*
X997539D01*
X995000Y1155524D01*
Y1160603D01*
X997539Y1163142D01*
X1000078D01*
X1002617Y1160603D01*
Y1152985D01*
X1126407Y787985D02*
X1121328D01*
X1123867D01*
Y775289D01*
X1121328Y772750D01*
X1118789D01*
X1116250Y775289D01*
X1131485Y772750D02*
X1136563D01*
X1134024D01*
Y787985D01*
X1131485Y785446D01*
%TF.MD5,6C40665875A874771F7BBFAA4AC624AC*%
M02*
